/* XPM */
static char *_2e9291308044217d0c705cb001beeb75u38oFgsXWEGqsIF[] = {
/* columns rows colors chars-per-pixel */
"32 32 17 1 ",
"  c None",
". c #0C0D08",
"X c #110B0B",
"o c #1E1E1E",
"O c #25271A",
"+ c #26271F",
"@ c #6C1111",
"# c #6F793E",
"$ c gray44",
"% c #861515",
"& c #A41A1A",
"* c #9AA950",
"= c #BBCB67",
"- c #CDDC78",
"; c gray73",
": c #F5FFC0",
"> c #F9FFD7",
/* pixels */
"                                ",
"                                ",
"   -&%%&-=-&%%%%%%%%&-=-&%%&-   ",
" -:-&%%&-:-&%%%%%%%%&-:-&%%&-:- ",
" -*-&%%&-*-&%%%%%%%%&-*-&%%&-*- ",
" -=-&%%&-=-&%%%%%%%%&-=-&%%&-=- ",
" -:-&%%&-:-&%%%%%%%%&-:-&%%&-:- ",
" -*-&%%&-*-&%%%%%%%%&-*-&%%&-*- ",
" -=-&%%&-=-&%%%%%%%%&-=-&%%&-=- ",
" -:-&%%&-:-&%%%%%%%%&-:-&%%&-:- ",
" -*-&%%&-*-&%%%%%%%%&-*-&%%&-*- ",
" ------------------------------ ",
" ooooooooooooo$;;$ooooooooooooo ",
"  XXXXXXXXXXXX$>>$XXXXXXXXXXXX  ",
"  XXXXXXXXXXXXXXXXXXXXXXXXXXXX  ",
"  XXXXXXXXXXXXXXXXXXXXXXXXXXXX  ",
" oooooooooooooooooooooooooooooo ",
" -------------=;;=------------- ",
" ===%%%%===%%%+;;+%%%===%%%%=== ",
" -:-&%%&-:-&%%$;;$%%&-:-&%%&-:- ",
" -*-&%%&-*-&%%$$$$%%&-*-&%%&-*- ",
" -=-&%%&-=-&%%%%%%%%&-=-&%%&-=- ",
" -:-&%%&-:-&%%%%%%%%&-:-&%%&-:- ",
" -*-&%%&-*-&%%%%%%%%&-*-&%%&-*- ",
" -=-&%%&-=-&%%%%%%%%&-=-&%%&-=- ",
" -:-&%%&-:-&%%%%%%%%&-:-&%%&-:- ",
" -*-&%%&-*-&%%%%%%%%&-*-&%%&-*- ",
" -=-&%%&-=-&%%%%%%%%&-=-&%%&-=- ",
" *:*&%%&*:*&%%%%%%%%&*:*&%%&*:* ",
" ###%%%%###%@@@@@@@@%###%%%%### ",
" OOOOOOOOOOOOOOOOOOOOOOOOOOOOOO ",
"  ............................  "
};
