/* XPM */
static char *result[] = {
/* columns rows colors chars-per-pixel */
"15 31 18 1 ",
"  c #322F47",
". c #3D3957",
"X c #5D6E78",
"o c #9B1F42",
"O c #A72952",
"+ c #BF2651",
"@ c #728794",
"# c #BAA995",
"$ c #A0B1B4",
"% c #E6CF8A",
"& c #E6D1B8",
"* c #B5C0C0",
"= c #C6DBDE",
"- c #CFE0D9",
"; c #FAFAC3",
": c #DFEDED",
"> c #E4EFE5",
", c None",
/* pixels */
",,,,,,,O,,,,,,,",
",,,,,,OO,,,,,,,",
",,,,,,OO,,++,,,",
",,,,oOOO,+++,,,",
",,,ooOOO++++,,,",
",,,oo>>>++++,,,",
",,,>>>>>>>:::,,",
",,>>>>>>>:.:.:,",
",,>>>>>>>:::::,",
",>>>>>>>:::;%:*",
",>>>>>::::::::*",
",>>>::::::...:*",
",::::::::.....*",
",:::::::..%.%.*",
",,::::::......*",
",,:::::::....*,",
",,,::********,,",
",,,,,,===@=,,,,",
",,,,,====@X=,,,",
",,,,,====@X=,,,",
",,,,-===@@XX=,,",
",,,,-===@@XX=,,",
",,,,-==@@@XX=,,",
",,,-===@@XXXX=,",
",,,===@@@XXXX=,",
",,,===@@@XXX$=,",
",,,===@@$$X$$,,",
",,,,=$&$$,#,,,,",
",,,,,,+,,,o,,,,",
",,,,,,..,,  ,,,",
",,,,,,,,,,,,,,,"
};
