/* XPM */
static char *result[] = {
/* columns rows colors chars-per-pixel */
"32 32 194 2 ",
"   c #5A9FDB",
".  c #5AA0DB",
"X  c #5BA0DB",
"o  c #5AA7DA",
"O  c #5BA0DC",
"+  c #5BA1DC",
"@  c #5CA1DC",
"#  c #5CA2DC",
"$  c #5DA2DC",
"%  c #5DA3DC",
"&  c #5DA3DD",
"*  c #5EA3DD",
"=  c #5EA4DD",
"-  c #5EA5DD",
";  c #5FA5DE",
":  c #5FA6DE",
">  c #5AA8DA",
",  c #5BA8DA",
"<  c #5BA8DB",
"1  c #5BA9DB",
"2  c #5CA9DB",
"3  c #5CAADB",
"4  c #5AAFD9",
"5  c #5DABDC",
"6  c #5EABDC",
"7  c #5FADDD",
"8  c #5AB0D9",
"9  c #5BB0D9",
"0  c #5BB0DA",
"q  c #5BB1DA",
"w  c #5CB1DA",
"e  c #5CB2DA",
"r  c #5DB2DA",
"t  c #5DB2DB",
"y  c #5DB3DB",
"u  c #5EB3DB",
"i  c #5FB4DC",
"p  c #5FB5DC",
"a  c #60A6DE",
"s  c #60A7DE",
"d  c #60A7DF",
"f  c #61A7DF",
"g  c #61A8DF",
"h  c #61A9DF",
"j  c #62A9DF",
"k  c #60AEDD",
"l  c #61AFDE",
"z  c #62B0DF",
"x  c #63B1DF",
"c  c #63B2DF",
"v  c #60B5DC",
"b  c #60B5DD",
"n  c #60B6DD",
"m  c #61B6DD",
"M  c #61B7DD",
"N  c #62B7DD",
"B  c #62B7DE",
"V  c #62B8DE",
"C  c #63B8DE",
"Z  c #63B9DF",
"A  c #64B9DF",
"S  c #64BADF",
"D  c #66BADF",
"F  c #66BBDF",
"G  c #67BCDF",
"H  c #62AAE0",
"J  c #63AAE0",
"K  c #63ABE0",
"L  c #64ABE0",
"P  c #64ACE1",
"I  c #64ADE1",
"U  c #65ADE1",
"Y  c #66ACE1",
"T  c #66ADE1",
"R  c #67ADE1",
"E  c #65AEE1",
"W  c #66AEE1",
"Q  c #67AEE1",
"!  c #67ADE2",
"~  c #66AEE2",
"^  c #67AEE2",
"/  c #66AFE2",
"(  c #67AFE2",
")  c #68AEE2",
"_  c #68AFE2",
"`  c #64B3E0",
"'  c #66B3E0",
"]  c #67B0E2",
"[  c #67B1E3",
"{  c #66B4E0",
"}  c #67B4E0",
"|  c #66B5E0",
" . c #67B5E0",
".. c #66B4E1",
"X. c #66B5E1",
"o. c #67B6E1",
"O. c #68B0E2",
"+. c #69B0E2",
"@. c #69B0E3",
"#. c #68B1E3",
"$. c #69B1E3",
"%. c #68B2E3",
"&. c #6AB2E3",
"*. c #6AB3E3",
"=. c #68B5E1",
"-. c #68B6E1",
";. c #68B7E2",
":. c #69B7E2",
">. c #69B3E4",
",. c #6AB2E4",
"<. c #6AB3E4",
"1. c #6BB3E4",
"2. c #6CB3E4",
"3. c #6AB4E4",
"4. c #6BB4E4",
"5. c #6BB5E5",
"6. c #6BB6E5",
"7. c #6CB5E5",
"8. c #6DB5E5",
"9. c #6DB6E5",
"0. c #6CB7E5",
"q. c #6DB7E5",
"w. c #6EB7E5",
"e. c #6EB7E6",
"r. c #65BBE0",
"t. c #67BBE0",
"y. c #66BCE0",
"u. c #67BCE0",
"i. c #67BDE1",
"p. c #68B8E2",
"a. c #69B8E3",
"s. c #69B9E3",
"d. c #6AB9E3",
"f. c #6ABAE3",
"g. c #6BBAE3",
"h. c #6BBBE3",
"j. c #6CBAE3",
"k. c #6CBBE3",
"l. c #68BCE0",
"z. c #68BDE0",
"x. c #68BDE1",
"c. c #69BDE1",
"v. c #69BEE0",
"b. c #69BEE1",
"n. c #69BFE1",
"m. c #6ABFE1",
"M. c #68BEE2",
"N. c #69BFE3",
"B. c #6ABFE2",
"V. c #6BBFE2",
"C. c #6ABAE4",
"Z. c #6CBBE4",
"A. c #6EB8E6",
"S. c #6FB8E6",
"D. c #6FB9E6",
"F. c #6FBAE6",
"G. c #6EBDE5",
"H. c #6FBDE5",
"J. c #6EBEE5",
"K. c #70BAE7",
"L. c #70BBE7",
"P. c #71BBE7",
"I. c #71BBE8",
"U. c #71BCE8",
"Y. c #72BCE8",
"T. c #72BDE8",
"R. c #73BEE8",
"E. c #73BEE9",
"W. c #73BFE9",
"Q. c #74BEE9",
"!. c #74BFE9",
"~. c #6AC0E2",
"^. c #6BC0E2",
"/. c #6AC0E3",
"(. c #6BC1E3",
"). c #6CC1E3",
"_. c #6DC1E3",
"`. c #6DC2E3",
"'. c #6CC1E4",
"]. c #6EC3E4",
"[. c #6EC4E4",
"{. c #6FC4E4",
"}. c #70C0E6",
"|. c #71C0E7",
" X c #71C1E7",
".X c #70C5E5",
"XX c #70C5E6",
"oX c #70C6E6",
"OX c #71C7E6",
"+X c #72C8E7",
"@X c #73C8E7",
"#X c #73C9E7",
"$X c #73C3E8",
"%X c #74C0E9",
/* pixels */
"u m U Y.>.] Z m m l - ^ T F           T T u.c.@.= = = _ R D G u.",
"+.i N A H.c l z X.#.K & O ( u.u.F   T ' o   X G G } } 4 4 X @ % ",
": b.&.<.1.*.; j #.C.[.$.O.,.d = < { 4 4 4 4 4 4   T T   , # a g ",
"q.u # $ % O.O.&.9.e.j.c.B...;.x 5 8 { T T   4 Y Y     T ^ B.D.U.",
"G.6 + O O ^ O @ & = e w f I.E.` y ,     Y Y { T T T T T @ d i./.",
"g O.0 O @ _ @ O , , X O = J e.4.z.F D R ^ _ _ 2 0 4 T   O = x S ",
"# O ^ v.^._.b t 0 .   . + & b.z.O O w b.g._.V h - + D 4 4 0 t 6 ",
". . ) 7.;.3.P.K 7 1 4 4 D F X . X % d P OX@XT.%.K & X Y { { X X ",
"T W O.e.(.0.5.T.w.O.W F F       0 v }.$X/.6.W.W.S.&._ @ + 0 W T ",
"Y T % Z /.0.6.5.S.= X o D Y T T u.4.#.5.a.[ ( ~ 9.&.= = * w 0 9 ",
"4 F 1 : U i.] ~ Z.t 0 9 4 4   T u.= K U q.^.B.,.<.d j B l ; % < ",
"X { T ( = : p m.b.# @ + O 9 4 ' { + & = O.1 3 u V.A y.o.U j - @ ",
"R   4 Y Q u.t.# & $.= * =.^ Q T F F 9 , { 4 @ = h K.E.5.p.P a O.",
"< o o o 4 R @ = a h 9.k.&.% O . 4 T T Y Y   w = j K.Q.%X+X{.1._ ",
"R       . 0 z.a L K.oXU h - # 9 D   X + ( ^ u.@.2.D.%.>.] K i w ",
"| T     T ^ @.)..Xf.(.M.A k 3 } 4 X # : 4.= 3 r i M A.I K d 6 1 ",
"9   T T X + = B ] !.%X>.I s O.O 8 0 : F.U.C & @ % - ~.b i 6 # O ",
"w < T Y D 0 y g E %.>.L.q.&.z.G W t.^.|.#XI = O O @ _ z._ ( + @ ",
"g.b.0 4 T O e ; j P I q.d u q X . O = J A.h.# X . Q O 0 O O O.<.",
"#.C & X T R 0 r $.<.^.i u # O     . ^ O.u z. .' T   4 4 > + : F.",
"C.P * X Y T Q ^ w 3 O.# + 0 4 4 4 F F 8 9 .     4 D       w n  X",
"e.g # .   T   > X O ^ Q X . T F T         4 4 o T T Y Y   O n.q.",
"6 -.Q Y Y     4 4       T Y 4 9 + ( ^ T T T T F F       T T 0 t ",
"X . {       4     4 o ' o o X 3 7 d = ^         4 T T Y o o   X ",
"    F F ' ' o 4 4 o o F F 4 0 : ~ ;.q.O.X   o 4 o o 4 F F 4 4   ",
"Y ' o X X . D       T     T t.1.I.@XS :.} 4 4 o o       T   o o ",
"F G ^ + @ + u.W Y Y Y T T Y ! n.`.A.4.# . R + w + X Y T Y Y T F ",
"< @ _ @.= +.l.0 , o T     4 4 + t * _ O O +.^.).,.O.( ! Y     . ",
"w = a 7.9.h.7 % O . F 4 4       9 X . W ( g [ s.X.H g $.+     9 ",
"5 k Z y.XXr.N - @ X F T Y Y     4 F F . O.P 5.0.N.x.U.q.5 , 4 0 ",
"= h / R.!.%.P v r t.T       T F { 4 o > O.K 3.'.s.s./.].@.X X 1 ",
":.8.L.!.!.T.S.4.$.z.u.8 4   F o       4 u.d.J.( P P U g -.W X @ "
};
