/* XPM */
static char *result[] = {
/* columns rows colors chars-per-pixel */
"14 16 6 1 ",
"  c #180E0E",
". c #CC7F00",
"X c #FF9F00",
"o c yellow",
"O c white",
"+ c None",
/* pixels */
"+++++    +++++",
"+++  oooo  +++",
"++ ooXXXXOO ++",
"+ oXXXXXOOXO +",
" oXXXXoOOXOX. ",
" oXXXoOO.OXX. ",
" oXXoOOXOXXX. ",
" oXXOOXO.XXX. ",
" oXOOoOX.XXX. ",
" oOOXOXX.XXX. ",
" OOXOoXX.XXX. ",
" OXOXX..XXXX. ",
"+ OXXXXXXXX. +",
"++ ooXXXX.. ++",
"+++  ....  +++",
"+++++    +++++"
};
