/* XPM */
static char *result[] = {
/* columns rows colors chars-per-pixel */
"10 16 6 1 ",
"  c #180E0E",
". c #CC7F00",
"X c #FF9F00",
"o c yellow",
"O c white",
"+ c None",
/* pixels */
"+++    +++",
"++ oooo ++",
"+ oXXXX. +",
"+ oXXXX. +",
" oXXooXX. ",
" oXXo.XX. ",
" oXoo.XX. ",
" oXXo.XX. ",
" oXXo.XX. ",
" oXXo.XXO ",
" oXXo.XOO ",
" oXX..OO. ",
" oXXXOOXO ",
"+ oXOOXO +",
"++ OO.O ++",
"+++    +++"
};
