/* XPM */
static char *result[] = {
/* columns rows colors chars-per-pixel */
"13 16 6 1 ",
"  c #180E0E",
". c #CC7F00",
"X c #FF9F00",
"o c yellow",
"O c white",
"+ c None",
/* pixels */
"+++++    ++++",
"+++  oooo +++",
"++ ooXXXXX ++",
"+ oXXXXXXX. +",
" oXXXXoXXXOO ",
" oXXXoX.XOO. ",
" oXXoXX.OOXO ",
" oXXXoXOOXO. ",
" oXXXoOOXOX. ",
" oXXXOO.OXX. ",
" oXXOOXOXXX. ",
" oXOOXOXXXX. ",
"+ OOXOXXXX. +",
"++ oOXXXX. ++",
"+++  .... +++",
"+++++    ++++"
};
