/* XPM */
static char *result[] = {
/* columns rows colors chars-per-pixel */
"32 32 4 1 ",
"  c black",
". c #4A5462",
"X c white",
"o c None",
/* pixels */
"XXXooooooooooo        ooooooXooX",
"ooXoooooooooo          oooooXXXo",
"ooXooooooooo            ooooXooo",
"ooXoooooooo              oooXooo",
"oooXXXXXXXX              XXXoooo",
"ooooooooooo              ooooooo",
"ooooooooooo    X       X ooooooo",
"ooooooooooo      XXXXX   ooooooo",
"ooooooooooo              ooooooo",
"oooooooooooo            oooooooo",
"ooooooooooooo          ooooooooo",
"oooooooooooo          oooooooooo",
" oooooooo             oooooooooo",
"o                      ooooooooo",
"ooooo      oo          ooooooooo",
"ooooooooooooo          ooooooooo",
"ooooooooooo            ooooooooo",
"oooooo                 ooooooooo",
"oooooooooo             ooooooooo",
"ooooooooooooo          ooooooooo",
"ooooooooooooo          ooooooooo",
"oooooooooXXXX          XXooooooo",
"ooooooooXXXXXX         XXXoooooo",
"ooooooooXXXXXX         XXXoooooo",
"ooooooooXXXXXX         XXXoooooo",
"ooooooooXXXXXX         XXXoooooo",
"oooooooooXXXX          XXooooooo",
"ooooooooooooo     oo   ooooooooo",
"ooooooooooooo    oooo  ooooooooo",
"ooooooooooooo   ooooo  ooooooooo",
"ooooooooooooo  .ooooo  ooooooooo",
"ooooooooooooo oooooooo ooooooooo"
};
